<?xml version="1.0" encoding="utf-8"?>
<!-- Generator: Adobe Illustrator 27.1.1, SVG Export Plug-In . SVG Version: 6.00 Build 0)  -->
<svg version="1.1" id="Layer_1" xmlns="http://www.w3.org/2000/svg" xmlns:xlink="http://www.w3.org/1999/xlink" x="0px" y="0px"
	 viewBox="0 0 512 512" style="enable-background:new 0 0 512 512;" xml:space="preserve">
<path d="M112,129h54l36-36h108l36,36h54c19.9,0,36,16.1,36,36v216c0,19.9-16.1,36-36,36H112c-19.9,0-36-16.1-36-36V165
	C76,145.1,92.1,129,112,129 M256,183c-49.7,0-90,40.3-90,90s40.3,90,90,90s90-40.3,90-90S305.7,183,256,183 M256,219
	c29.8,0,54,24.2,54,54s-24.2,54-54,54s-54-24.2-54-54S226.2,219,256,219z"/>
</svg>
