<?xml version="1.0" encoding="utf-8"?>
<!-- Generator: Adobe Illustrator 27.1.1, SVG Export Plug-In . SVG Version: 6.00 Build 0)  -->
<svg version="1.1" id="Layer_1" xmlns="http://www.w3.org/2000/svg" xmlns:xlink="http://www.w3.org/1999/xlink" x="0px" y="0px"
	 viewBox="0 0 512 512" style="enable-background:new 0 0 512 512;" xml:space="preserve">
<style type="text/css">
	.st0{fill:#FFFFFF;}
</style>
<path class="st0" d="M121,121c0-12.4-10.1-22.5-22.5-22.5S76,108.6,76,121v236.2c0,31.1,25.2,56.2,56.2,56.2h281.2
	c12.4,0,22.5-10.1,22.5-22.5s-10.1-22.5-22.5-22.5H132.2c-6.2,0-11.2-5.1-11.2-11.2V121z M406.9,181.9c8.8-8.8,8.8-23.1,0-31.9
	s-23.1-8.8-31.9,0l-74,74.1l-40.4-40.4c-8.8-8.8-23.1-8.8-31.9,0L150,262.5c-8.8,8.8-8.8,23.1,0,31.9s23.1,8.8,31.9,0l62.9-62.8
	l40.4,40.4c8.8,8.8,23.1,8.8,31.9,0L406.9,181.9L406.9,181.9z"/>
</svg>
