<?xml version="1.0" encoding="utf-8"?>
<!-- Generator: Adobe Illustrator 27.1.1, SVG Export Plug-In . SVG Version: 6.00 Build 0)  -->
<svg version="1.1" id="Layer_1" xmlns="http://www.w3.org/2000/svg" xmlns:xlink="http://www.w3.org/1999/xlink" x="0px" y="0px"
	 viewBox="0 0 512 512" style="enable-background:new 0 0 512 512;" xml:space="preserve">
<style type="text/css">
	.st0{fill:#FFFFFF;}
</style>
<path class="st0" d="M436,256c0,99.4-80.6,180-180,180S76,355.4,76,256S156.6,76,256,76S436,156.6,436,256z M208.4,179.4
	c-5.3,3-8.6,8.6-8.6,14.7v123.8c0,6.1,3.3,11.7,8.6,14.7c5.3,3,11.8,2.9,17.1-0.4l101.2-61.9c5-3.1,8.1-8.5,8.1-14.4
	s-3.1-11.3-8.1-14.4l-101.2-61.9c-5.2-3.2-11.7-3.3-17.1-0.4V179.4z"/>
</svg>
