<?xml version="1.0" encoding="utf-8"?>
<!-- Generator: Adobe Illustrator 27.1.1, SVG Export Plug-In . SVG Version: 6.00 Build 0)  -->
<svg version="1.1" id="Layer_1" xmlns="http://www.w3.org/2000/svg" xmlns:xlink="http://www.w3.org/1999/xlink" x="0px" y="0px"
	 viewBox="0 0 512 512" style="enable-background:new 0 0 512 512;" xml:space="preserve">
<style type="text/css">
	.st0{fill:#FFFFFF;}
</style>
<path class="st0" d="M297,112.7c-9.6-2.8-19.5,2.8-22.3,12.4l-72,252c-2.8,9.6,2.8,19.5,12.4,22.3c9.6,2.8,19.5-2.8,22.3-12.4
	l72-252C312.1,125.4,306.5,115.4,297,112.7L297,112.7z M342.3,180.2c-7,7-7,18.5,0,25.5l50.2,50.3l-50.3,50.3c-7,7-7,18.5,0,25.5
	s18.5,7,25.5,0l63-63c7-7,7-18.5,0-25.5l-63-63C360.7,173.2,349.3,173.2,342.3,180.2L342.3,180.2z M169.8,180.2c-7-7-18.5-7-25.5,0
	l-63,63c-7,7-7,18.5,0,25.5l63,63c7,7,18.5,7,25.5,0s7-18.5,0-25.5L119.5,256l50.3-50.3C176.8,198.7,176.8,187.3,169.8,180.2
	L169.8,180.2z"/>
</svg>
