<?xml version="1.0" encoding="utf-8"?>
<!-- Generator: Adobe Illustrator 27.0.0, SVG Export Plug-In . SVG Version: 6.00 Build 0)  -->
<svg version="1.1" id="Layer_1" xmlns="http://www.w3.org/2000/svg" xmlns:xlink="http://www.w3.org/1999/xlink" x="0px" y="0px"
	 viewBox="0 0 240 240" style="enable-background:new 0 0 240 240;" xml:space="preserve">
<style type="text/css">
	.st0{fill:#231F20;}
</style>
<path class="st0" d="M115.6,182.9v-59.2h54.4l8.9,3.8c2.3,1.1,4.5,2.5,6.5,4.1c1.7,1.4,3,3.2,3.9,5.2c0.9,2.3,1.3,4.8,1.3,7.3
	c0.3,5.3-2,10.5-6.2,13.8c-5.5,3.9-12.1,5.7-18.8,5.1c-4.5,0.1-9-0.4-13.4-1.4c-3.6-0.9-7.1-2-10.5-3.1c-0.9,2.2-1.6,4.5-2.3,6.8
	c-0.6,2.3-1.1,4.6-1.4,6.9l6.3,2c2.1,0.6,4.2,1.1,6.4,1.5c2.3,0.4,4.7,0.8,7,0.9h8.6c10.9,0.7,21.7-2.5,30.5-9.1
	c7.3-6.2,11.3-15.4,10.8-25c0.1-3.8-0.5-7.7-1.7-11.3c-1-2.8-2.5-5.4-4.5-7.7H230v59.2c-0.1,5.3-4.3,9.6-9.6,9.6h-95.1
	C120,192.5,115.6,188.2,115.6,182.9L115.6,182.9z M43.5,177.1c-7.1-3-13.4-7.5-18.5-13.2c-5.1-5.9-8.9-12.8-11.2-20.3
	c-2.6-8.2-3.8-16.8-3.8-25.5c-0.1-8.6,1.3-17.2,4-25.5c2.4-7.5,6.3-14.4,11.4-20.4c5.1-5.8,11.3-10.3,18.3-13.4
	c7.9-3.3,16.3-4.9,24.8-4.8c4.9,0,9.9,0.3,14.8,1c5.2,0.9,10.2,2.3,15.1,4.3c-0.2,3.6-0.9,7.1-2.1,10.5c-1.2,3.2-2.4,6.6-3.8,9.9
	c-3.4-1.2-6.9-2.2-10.5-2.8c-3.6-0.7-7.3-1-11-0.9c-9.6-0.6-19,3.3-25.4,10.5c-6.4,9.2-9.5,20.3-8.8,31.4
	c0,27.9,11.8,41.9,35.5,41.9c3.8,0,7.5-0.3,11.2-0.8c3.7-0.6,7.4-1.5,11-2.6c1.5,3.2,2.7,6.5,3.7,9.9c1,3.4,1.8,6.9,2.2,10.5
	c-5.2,1.9-10.5,3.3-16,4.3c-5.1,0.7-10.3,1-15.4,0.9C60.4,182,51.7,180.4,43.5,177.1L43.5,177.1z M115.6,108.2v-51
	c0-5.3,4.3-9.7,9.6-9.7c0,0,0,0,0,0h95.2c5.3,0.1,9.5,4.4,9.5,9.6v51h-56.4c-2.1-0.8-4.1-1.7-6.1-2.8c-1.9-0.9-3.6-2-5.1-3.3
	c-1.4-1.3-2.5-2.8-3.4-4.5c-0.9-1.7-1.4-3.7-1.4-5.7c-0.3-4.5,1.7-8.9,5.2-11.7c4.4-2.9,9.6-4.2,14.8-3.9c4-0.1,8,0.3,12,1
	c3.2,0.7,6.4,1.7,9.5,2.8c1.7-4,2.8-8.3,3.4-12.7c-3.8-1.4-7.7-2.4-11.6-3.2c-4.6-0.8-9.2-1.2-13.9-1.2c-9.5-0.6-18.9,2.2-26.6,7.8
	c-6.4,5.4-9.9,13.5-9.4,21.8c-0.1,3.6,0.4,7.1,1.6,10.5c0.6,1.8,1.4,3.4,2.4,5L115.6,108.2z"/>
</svg>
