<?xml version="1.0" encoding="utf-8"?>
<!-- Generator: Adobe Illustrator 27.1.1, SVG Export Plug-In . SVG Version: 6.00 Build 0)  -->
<svg version="1.1" id="Layer_1" xmlns="http://www.w3.org/2000/svg" xmlns:xlink="http://www.w3.org/1999/xlink" x="0px" y="0px"
	 viewBox="0 0 512 512" style="enable-background:new 0 0 512 512;" xml:space="preserve">
<style type="text/css">
	.st0{fill:#FFFFFF;}
</style>
<path class="st0" d="M418.5,103.5l-70-70C337.2,22.3,321.9,16,306.1,16H136c-33.1,0-60,26.9-60,60v360c0,33.1,26.9,60,60,60h240
	c33,0,60-27,60-60V145.9C436,130.1,429.7,114.8,418.5,103.5z M391,436c0,8.3-6.7,15-15,15H136c-8.3,0-15-6.7-15-15V76.1
	c0-8.3,6.7-15,15-15h150V136c0,16.6,13.4,30,30,30h74.2v270H391z M166,278.5c0,12.5,10.1,22.5,22.5,22.5h135
	c12.5,0,22.5-10,22.5-22.5S336,256,323.5,256h-135C176.1,256,166,266.1,166,278.5z M323.5,346h-135c-12.4,0-22.5,10.1-22.5,22.5
	s10.1,22.5,22.5,22.5h135c12.4,0,22.5-10.1,22.5-22.5S336,346,323.5,346z"/>
</svg>
