<?xml version="1.0" encoding="UTF-8" standalone="no"?>
<!-- Generator: Adobe Illustrator 27.1.1, SVG Export Plug-In . SVG Version: 6.00 Build 0)  -->

<svg
   version="1.1"
   id="Layer_1"
   x="0px"
   y="0px"
   viewBox="0 0 512 512"
   style="enable-background:new 0 0 512 512;"
   xml:space="preserve"
   sodipodi:docname="github.svg"
   inkscape:version="1.4 (e7c3feb100, 2024-10-09)"
   xmlns:inkscape="http://www.inkscape.org/namespaces/inkscape"
   xmlns:sodipodi="http://sodipodi.sourceforge.net/DTD/sodipodi-0.dtd"
   xmlns="http://www.w3.org/2000/svg"
   xmlns:svg="http://www.w3.org/2000/svg"><defs
   id="defs1" /><sodipodi:namedview
   id="namedview1"
   pagecolor="#ffffff"
   bordercolor="#000000"
   borderopacity="0.25"
   inkscape:showpageshadow="2"
   inkscape:pageopacity="0.0"
   inkscape:pagecheckerboard="0"
   inkscape:deskcolor="#d1d1d1"
   inkscape:zoom="2.4394531"
   inkscape:cx="256"
   inkscape:cy="256"
   inkscape:window-width="2558"
   inkscape:window-height="1515"
   inkscape:window-x="0"
   inkscape:window-y="0"
   inkscape:window-maximized="1"
   inkscape:current-layer="Layer_1" />
<path
   d="m 256,18.51046 c -134.26118,0 -243.128903,108.86771 -243.128903,243.12891 0,107.51699 69.832024,198.69033 166.273153,230.97245 12.15644,1.891 16.07352,-5.53793 16.07352,-12.15644 0,-5.53794 0,-20.9361 0,-41.06177 -67.40073,14.58773 -81.71832,-32.55226 -81.71832,-32.55226 -11.21095,-28.22997 -27.014324,-35.79398 -27.014324,-35.79398 -22.151745,-15.12802 1.755931,-14.58773 1.755931,-14.58773 24.312893,1.75592 37.144693,24.98825 37.144693,24.98825 21.20624,37.00961 56.86515,26.06881 70.77752,20.12566 2.16115,-15.80337 8.50952,-26.47404 15.2631,-32.55225 -54.02865,-6.07823 -110.62365,-27.01433 -110.62365,-119.67346 0,-27.01432 9.18486,-48.62578 24.98824,-65.91494 -2.43128,-6.07823 -10.9408,-31.33661 2.4313,-64.15902 0,0 20.39581,-6.6185 66.86044,24.85318 19.18017,-5.40286 40.11627,-7.96923 60.78223,-7.96923 20.66595,0 41.60205,2.70143 60.78222,7.96923 46.46464,-31.33662 66.86046,-24.85318 66.86046,-24.85318 13.37208,32.82241 4.86257,58.08079 2.43128,64.15902 15.80338,17.28916 24.98825,38.90062 24.98825,65.91494 0,92.92928 -56.86515,113.32509 -111.16394,119.40331 8.77966,7.56401 16.74888,22.42189 16.74888,44.97885 0,32.55226 0,58.89122 0,66.5903 0,6.61851 3.91708,14.3176 16.34367,12.15645 C 429.56703,460.05957 499.1289,369.15636 499.1289,261.63937 499.1289,127.37817 390.26118,18.51046 256,18.51046 Z"
   id="path1"
   style="stroke-width:1.35072" />
</svg>
