<?xml version="1.0" encoding="utf-8"?>
<!-- Generator: Adobe Illustrator 27.1.1, SVG Export Plug-In . SVG Version: 6.00 Build 0)  -->
<svg version="1.1" id="Layer_1" xmlns="http://www.w3.org/2000/svg" xmlns:xlink="http://www.w3.org/1999/xlink" x="0px" y="0px"
	 viewBox="0 0 512 512" style="enable-background:new 0 0 512 512;" xml:space="preserve">
<style type="text/css">
	.st0{fill:#FFFFFF;}
</style>
<path class="st0" d="M256,80.1c-99.4,0-180,80.6-180,180c0,79.6,51.7,147.1,123.1,171c9,1.4,11.9-4.1,11.9-9c0-4.1,0-15.5,0-30.4
	c-49.9,10.8-60.5-24.1-60.5-24.1c-8.3-20.9-20-26.5-20-26.5c-16.4-11.2,1.3-10.8,1.3-10.8c18,1.3,27.5,18.5,27.5,18.5
	c15.7,27.4,42.1,19.3,52.4,14.9c1.6-11.7,6.3-19.6,11.3-24.1c-40-4.5-81.9-20-81.9-88.6c0-20,6.8-36,18.5-48.8
	c-1.8-4.5-8.1-23.2,1.8-47.5c0,0,15.1-4.9,49.5,18.4c14.2-4,29.7-5.9,45-5.9s30.8,2,45,5.9c34.4-23.2,49.5-18.4,49.5-18.4
	c9.9,24.3,3.6,43,1.8,47.5c11.7,12.8,18.5,28.8,18.5,48.8c0,68.8-42.1,83.9-82.3,88.4c6.5,5.6,12.4,16.6,12.4,33.3
	c0,24.1,0,43.6,0,49.3c0,4.9,2.9,10.6,12.1,9C384.5,407,436,339.7,436,260.1C436,160.7,355.4,80.1,256,80.1z"/>
</svg>
