<?xml version="1.0" encoding="utf-8"?>
<!-- Generator: Adobe Illustrator 27.1.1, SVG Export Plug-In . SVG Version: 6.00 Build 0)  -->
<svg version="1.1" id="Layer_1" xmlns="http://www.w3.org/2000/svg" xmlns:xlink="http://www.w3.org/1999/xlink" x="0px" y="0px"
	 viewBox="0 0 512 512" style="enable-background:new 0 0 512 512;" xml:space="preserve">
<path d="M176,76c-55.1,0-100,44.9-100,100v160c0,55.1,44.9,100,100,100h160c55.1,0,100-44.9,100-100V176c0-55.1-44.9-100-100-100
	H176z M176,116h160c33.1,0,60,26.9,60,60v160c0,33.1-26.9,60-60,60H176c-33.1,0-60-26.9-60-60V176C116,142.9,142.9,116,176,116z
	 M356,136c-11,0-20,9-20,20s9,20,20,20s20-9,20-20S367,136,356,136z M256,156c-55.1,0-100,44.9-100,100s44.9,100,100,100
	s100-44.9,100-100S311.1,156,256,156z M256,196c33.1,0,60,26.9,60,60s-26.9,60-60,60s-60-26.9-60-60S222.9,196,256,196z"/>
</svg>
