<?xml version="1.0" encoding="utf-8"?>
<!-- Generator: Adobe Illustrator 27.1.1, SVG Export Plug-In . SVG Version: 6.00 Build 0)  -->
<svg version="1.1" id="Layer_1" xmlns="http://www.w3.org/2000/svg" xmlns:xlink="http://www.w3.org/1999/xlink" x="0px" y="0px"
	 viewBox="0 0 512 512" style="enable-background:new 0 0 512 512;" xml:space="preserve">
<style type="text/css">
	.st0{fill:#FFFFFF;}
</style>
<path class="st0" d="M396,76c22.1,0,40,17.9,40,40v280c0,22.1-17.9,40-40,40H116c-22.1,0-40-17.9-40-40V116c0-22.1,17.9-40,40-40
	H396 M386,386V280c0-36-29.2-65.2-65.2-65.2l0,0c-17,0-36.8,10.4-46.4,26v-22.2h-55.8V386h55.8v-98.6c0-15.4,12.4-28,27.8-28
	c15.5,0,28,12.5,28,28V386H386 M153.6,187.2c18.6,0,33.6-15,33.6-33.6l0,0c0-18.6-15-33.8-33.6-33.8c-18.7,0-33.8,15.1-33.8,33.8
	l0,0C119.8,172.2,135,187.2,153.6,187.2 M181.4,386V218.6H126V386H181.4z"/>
</svg>
