<?xml version="1.0" encoding="utf-8"?>
<!-- Generator: Adobe Illustrator 27.1.1, SVG Export Plug-In . SVG Version: 6.00 Build 0)  -->
<svg version="1.1" id="Layer_1" xmlns="http://www.w3.org/2000/svg" xmlns:xlink="http://www.w3.org/1999/xlink" x="0px" y="0px"
	 viewBox="0 0 512 512" style="enable-background:new 0 0 512 512;" xml:space="preserve">
<style type="text/css">
	.st0{fill:#FFFFFF;}
</style>
<path class="st0" d="M436,189.8c0-83.7-54.9-108.3-54.9-108.3c-53.8-24.7-196.8-24.5-250.2,0c0,0-54.9,24.6-54.9,108.3
	c0,99.7-5.7,223.5,91,249.1c34.9,9.2,64.9,11.2,89,9.8c43.8-2.4,68.3-15.6,68.3-15.6l-1.5-31.8c0,0-31.3,9.8-66.4,8.7
	c-34.8-1.2-71.5-3.8-77.2-46.5c-0.5-3.8-0.8-7.8-0.8-12c73.7,18,136.6,7.8,153.9,5.8c48.3-5.8,90.5-35.6,95.8-62.8
	C436.6,251.5,436,189.8,436,189.8L436,189.8z M371.3,297.6h-40.1v-98.4c0-42.8-55.1-44.5-55.1,5.9V259h-39.9v-53.8
	c0-50.4-55.1-48.8-55.1-5.9v98.4h-40.2c0-105.2-4.5-127.4,15.9-150.8c22.3-24.9,68.7-26.5,89.4,5.3l10,16.8l10-16.8
	c20.8-32,67.3-30,89.4-5.3C375.8,170.4,371.3,192.5,371.3,297.6L371.3,297.6z"/>
</svg>
