<?xml version="1.0" encoding="utf-8"?>
<!-- Generator: Adobe Illustrator 27.1.1, SVG Export Plug-In . SVG Version: 6.00 Build 0)  -->
<svg version="1.1" id="Layer_1" xmlns="http://www.w3.org/2000/svg" xmlns:xlink="http://www.w3.org/1999/xlink" x="0px" y="0px"
	 viewBox="0 0 512 512" style="enable-background:new 0 0 512 512;" xml:space="preserve">
<style type="text/css">
	.st0{fill:#FFFFFF;}
</style>
<path class="st0" d="M411,87.7c-15.6-15.6-40.7-15.6-56.3,0L333.4,109l69.6,69.6l21.4-21.4c15.6-15.6,15.6-40.7,0-56.3L411,87.7z
	 M198.5,244c-4.3,4.3-7.7,9.7-9.6,15.6l-21,63.1c-2.1,6.1-0.4,12.9,4.1,17.5c4.5,4.6,11.3,6.2,17.5,4.1l63.1-21
	c5.8-2,11.2-5.3,15.6-9.6L387,194.7L317.3,125L198.5,244z M144.2,117.7c-37.7,0-68.2,30.5-68.2,68.2v181.9
	c0,37.7,30.5,68.2,68.2,68.2h181.9c37.7,0,68.2-30.5,68.2-68.2v-68.2c0-12.6-10.2-22.7-22.7-22.7c-12.6,0-22.7,10.2-22.7,22.7v68.2
	c0,12.6-10.2,22.7-22.7,22.7H144.2c-12.6,0-22.7-10.2-22.7-22.7V185.9c0-12.6,10.2-22.7,22.7-22.7h68.2c12.6,0,22.7-10.2,22.7-22.7
	s-10.2-22.7-22.7-22.7H144.2z"/>
</svg>
