<?xml version="1.0" encoding="UTF-8" standalone="no"?>
<svg
   id="svg12"
   version="1.1"
   viewBox="0 0 75 75"
   height="75"
   width="75"
   sodipodi:docname="pixelfed.svg"
   inkscape:version="1.4 (e7c3feb100, 2024-10-09)"
   xmlns:inkscape="http://www.inkscape.org/namespaces/inkscape"
   xmlns:sodipodi="http://sodipodi.sourceforge.net/DTD/sodipodi-0.dtd"
   xmlns="http://www.w3.org/2000/svg"
   xmlns:svg="http://www.w3.org/2000/svg"
   xmlns:rdf="http://www.w3.org/1999/02/22-rdf-syntax-ns#"
   xmlns:cc="http://creativecommons.org/ns#"
   xmlns:dc="http://purl.org/dc/elements/1.1/">
  <sodipodi:namedview
     id="namedview1"
     pagecolor="#ffffff"
     bordercolor="#000000"
     borderopacity="0.25"
     inkscape:showpageshadow="2"
     inkscape:pageopacity="0.0"
     inkscape:pagecheckerboard="0"
     inkscape:deskcolor="#d1d1d1"
     inkscape:zoom="10.25"
     inkscape:cx="37.512195"
     inkscape:cy="35.170732"
     inkscape:window-width="2558"
     inkscape:window-height="1515"
     inkscape:window-x="0"
     inkscape:window-y="0"
     inkscape:window-maximized="1"
     inkscape:current-layer="Page-1" />
  <metadata
     id="metadata16">
    <rdf:RDF>
      <cc:Work
         rdf:about="">
        <dc:format>image/svg+xml</dc:format>
        <dc:type
           rdf:resource="http://purl.org/dc/dcmitype/StillImage" />
        <dc:title>icon/black/svg/pixelfed-icon-black</dc:title>
      </cc:Work>
    </rdf:RDF>
  </metadata>
  <!-- Generator: Sketch 51.3 (57544) - http://www.bohemiancoding.com/sketch -->
  <title
     id="title2">icon/black/svg/pixelfed-icon-black</title>
  <desc
     id="desc4">Created with Sketch.</desc>
  <defs
     id="defs6" />
  <g
     transform="matrix(1.4787358,0,0,1.4787358,0.5316028,0.5316028)"
     style="fill:none;fill-rule:evenodd;stroke:none;stroke-width:1"
     id="Page-1">
    <g
       style="fill:#000000"
       id="icon-copy-11"
       transform="matrix(0.99208289,0,0,0.99208289,0.19792776,0.19792776)">
      <g
         id="Group-12">
        <path
           id="Combined-Shape"
           d="M 25,50 C 11.192881,50 0,38.807119 0,25 0,11.192881 11.192881,0 25,0 38.807119,0 50,11.192881 50,25 50,38.807119 38.807119,50 25,50 Z M 23.015316,30.458015 h 4.586148 c 4.320335,0 7.822658,-3.409518 7.822658,-7.615371 0,-4.205853 -3.502323,-7.615371 -7.822658,-7.615371 h -6.619172 c -2.492501,0 -4.513072,1.967029 -4.513072,4.393483 v 17.100022 z" />
      </g>
    </g>
  </g>
</svg>
