<?xml version="1.0" encoding="utf-8"?>
<!-- Generator: Adobe Illustrator 27.1.1, SVG Export Plug-In . SVG Version: 6.00 Build 0)  -->
<svg version="1.1" id="Layer_1" xmlns="http://www.w3.org/2000/svg" xmlns:xlink="http://www.w3.org/1999/xlink" x="0px" y="0px"
	 viewBox="0 0 512 512" style="enable-background:new 0 0 512 512;" xml:space="preserve">
<style type="text/css">
	.st0{fill-rule:evenodd;clip-rule:evenodd;fill:#FFFFFF;}
</style>
<path class="st0" d="M76,362.9V149.1c0-40.5,32.6-73.1,73.1-73.1h213.8c40.5,0,73.1,32.6,73.1,73.1v103.5
	c0,40.5-32.6,73.1-73.1,73.1h-41.6v37.1c0,40.5-32.6,73.1-73.1,73.1h-99C108.6,436,76,403.4,76,362.9z M188.5,189.6H95.1V148
	c0-29.2,23.6-54,54-54h39.4V189.6z M362.9,307.7h-39.4V211h93.4v42.7C416.9,283,393.2,307.7,362.9,307.7z M248.1,418h-39.4v-88.9
	h93.4V364C302.1,393.2,278.5,418,248.1,418z M208.7,307.7h93.4V211h-93.4L208.7,307.7L208.7,307.7z M323.5,189.6h93.4v-40.5
	c0-30.4-24.8-54-54-54h-39.4V189.6z M302.1,189.6h-93.4V94h93.4V189.6z M94,328v34.9c0,30.4,24.8,54,54,54h40.5V328H94z
	 M188.5,307.7H94V211h94.5V307.7z"/>
</svg>
