<?xml version="1.0" encoding="utf-8"?>
<!-- Generator: Adobe Illustrator 27.1.1, SVG Export Plug-In . SVG Version: 6.00 Build 0)  -->
<svg version="1.1" id="Layer_1" xmlns="http://www.w3.org/2000/svg" xmlns:xlink="http://www.w3.org/1999/xlink" x="0px" y="0px"
	 viewBox="0 0 512 512" style="enable-background:new 0 0 512 512;" xml:space="preserve">
<style type="text/css">
	.st0{fill:#FFFFFF;}
</style>
<path class="st0" d="M301,317.4c1.4,1.6,1.4,5,0,7c-13.1,12.6-37.6,13.7-45,13.7c-7,0-31.5-1.1-44.3-13.7c-1.8-2-1.8-5.4,0-7
	c2-1.8,5-1.8,6.8,0c8.3,8.3,25.4,10.6,37.4,10.6c12.4,0,29.9-2.3,37.8-10.6C295.8,315.6,298.8,315.6,301,317.4 M233.5,274.7
	c0-10.3-8.5-18.7-18.7-18.7s-18.7,8.5-18.7,18.7c0,10.3,8.5,18.9,18.7,18.7C225,293.4,233.5,285,233.5,274.7 M297.2,256
	c-10.3,0-18.7,9-18.7,18.9s8.5,18.7,18.7,18.7c10.3,0,18.7-8.6,18.7-18.7C315.9,265,307.5,256,297.2,256 M436,256
	c0,99-81,180-180,180S76,355,76,256S157,76,256,76S436,157,436,256 M376.1,256c0-14.6-12.1-26.3-26.1-26.3c-7.2,0-13.7,2.9-18.4,7.4
	c-18-13-42.7-21.2-70.2-22.3l12.1-56.3l39.1,8.5c0.4,9.9,8.6,17.8,18.7,17.8c10.3,0,18.7-8.5,18.7-18.7s-8.5-18.7-18.7-18.7
	c-7.4,0-13.9,4.3-16.7,10.6l-43.7-9.4c-1.3-0.5-2.5,0-3.4,0.7c-1.1,0.7-1.6,1.8-1.8,3.1L252.2,215c-27.9,0.9-53.1,9.2-71.5,22.3
	c-4.7-4.5-11.2-7.2-18.2-7.2c-14.6,0-26.3,11.7-26.3,25.9c0,11,6.5,20,15.5,24.1c-0.4,2.9-0.5,5-0.5,7.9c0,40,47,73.3,104.8,73.3
	c58.1,0,105.3-32.8,105.3-73.3c0-2.5-0.2-5-0.7-7.9C369.6,276,376.1,266.8,376.1,256z"/>
</svg>
