<?xml version="1.0" encoding="utf-8"?>
<!-- Generator: Adobe Illustrator 27.1.1, SVG Export Plug-In . SVG Version: 6.00 Build 0)  -->
<svg version="1.1" id="Layer_1" xmlns="http://www.w3.org/2000/svg" xmlns:xlink="http://www.w3.org/1999/xlink" x="0px" y="0px"
	 viewBox="0 0 512 512" style="enable-background:new 0 0 512 512;" xml:space="preserve">
<style type="text/css">
	.st0{fill:#FFFFFF;}
</style>
<path class="st0" d="M436,144.6c-13.3,6-27.5,10-42.3,11.9c15.1-9.1,26.8-23.6,32.4-41c-14.3,8.6-30.1,14.6-46.8,18.1
	c-13.6-14.8-32.7-23.4-54.4-23.4c-40.4,0-73.5,33-73.5,73.8c0,5.9,0.7,11.5,1.9,16.9c-61.3-3.1-115.8-32.5-152.1-77.1
	c-6.4,10.8-10,23.6-10,37c0,25.6,12.9,48.4,32.9,61.3c-12.2,0-23.6-3.4-33.6-8.6c0,0,0,0,0,0.5c0,35.8,25.5,65.7,59.2,72.4
	c-6.2,1.7-12.7,2.6-19.4,2.6c-4.6,0-9.3-0.5-13.8-1.4c9.3,29.1,36.3,50.8,68.8,51.3c-25.1,20-57,31.7-91.7,31.7
	c-5.9,0-11.7-0.3-17.6-1c32.7,21,71.6,33.2,113.2,33.2c135.6,0,210.1-112.5,210.1-210.1c0-3.3,0-6.4-0.2-9.6
	C413.6,172.7,426,159.6,436,144.6z"/>
</svg>
